# xmcd
#
# Track frame offsets:
#	183
#	17858
#	36158
#	54758
#	69558
#	82083
#	101433
#	124608
#	139758
#	159045
#	179433
#	205783
#	226533
#	240558
#
# Disc length: 3490 seconds
#
# Revision: 0
# Processed by: cddbd v1.4PL0 Copyright (c) Steve Scherf et al.
# Submitted via: EasyCDDAExtractor 4.6.0.1
#
DISCID=a80da00e
DTITLE=Eric Clapton - Blues Rehearsals
DYEAR=1995
DGENRE=
TTITLE0=Hootchie Coochie Man
TTITLE1=I'm Tore Down
TTITLE2=Sinner's Prayer
TTITLE3=Motherless Child
TTITLE4=Malted Milk
TTITLE5=Born Under a Bad Sign
TTITLE6=Someday After a While
TTITLE7=It Hurts Me Too
TTITLE8=44
TTITLE9=Five Long Years
TTITLE10=Crossroads
TTITLE11=Ain't Nobody's Business
TTITLE12=I'm Tore Down (Bonus Track)
TTITLE13=Five Long Years (Bonus Track)
EXTD=
EXTT0=
EXTT1=
EXTT2=
EXTT3=
EXTT4=
EXTT5=
EXTT6=
EXTT7=
EXTT8=
EXTT9=
EXTT10=
EXTT11=
EXTT12=
EXTT13=
PLAYORDER=
